<svg width="1180" height="610" viewBox="0 0 1180 610" fill="none" xmlns="http://www.w3.org/2000/svg">
  <defs>
    <linearGradient id="bgGrad" x1="0" y1="0" x2="1" y2="1">
      <stop offset="0%" stop-color="#0C1E17"/>
      <stop offset="100%" stop-color="#0E1A2A"/>
    </linearGradient>

    <linearGradient id="accent" x1="0" y1="0" x2="1" y2="1">
      <stop offset="0%" stop-color="#10B981"/>
      <stop offset="50%" stop-color="#22D3EE"/>
      <stop offset="100%" stop-color="#7C3AED"/>
    </linearGradient>

    <linearGradient id="nameGrad" x1="0" y1="0" x2="0" y2="1">
      <stop offset="0%" stop-color="#34D399"/>
      <stop offset="100%" stop-color="#34D399"/>
    </linearGradient>

    <linearGradient id="pillGrad" x1="0" y1="0" x2="1" y2="0">
      <stop offset="0%" stop-color="#10B981" stop-opacity="0.25"/>
      <stop offset="100%" stop-color="#22D3EE" stop-opacity="0.25"/>
    </linearGradient>

    <radialGradient id="glowGreen" cx="50%" cy="50%" r="50%">
      <stop offset="0%" stop-color="#10B981" stop-opacity="0.30"/>
      <stop offset="100%" stop-color="#10B981" stop-opacity="0"/>
    </radialGradient>
    <radialGradient id="glowBlue" cx="50%" cy="50%" r="50%">
      <stop offset="0%" stop-color="#22D3EE" stop-opacity="0.25"/>
      <stop offset="100%" stop-color="#22D3EE" stop-opacity="0"/>
    </radialGradient>
    <radialGradient id="glowPurple" cx="50%" cy="50%" r="50%">
      <stop offset="0%" stop-color="#7C3AED" stop-opacity="0.20"/>
      <stop offset="100%" stop-color="#7C3AED" stop-opacity="0"/>
    </radialGradient>

    <linearGradient id="glassReflect" x1="0" y1="0" x2="0" y2="1">
      <stop offset="0%" stop-color="#FFFFFF" stop-opacity="0.08"/>
      <stop offset="15%" stop-color="#FFFFFF" stop-opacity="0.02"/>
      <stop offset="100%" stop-color="#FFFFFF" stop-opacity="0"/>
    </linearGradient>

    <linearGradient id="shimmer" x1="0" y1="0" x2="1" y2="0">
      <stop offset="0%" stop-color="#10B981" stop-opacity="0"/>
      <stop offset="50%" stop-color="#10B981" stop-opacity="0.8"/>
      <stop offset="100%" stop-color="#10B981" stop-opacity="0"/>
    </linearGradient>

    <linearGradient id="scanGrad" x1="0" y1="0" x2="1" y2="0">
      <stop offset="0%" stop-color="#10B981" stop-opacity="0"/>
      <stop offset="50%" stop-color="#10B981" stop-opacity="0.12"/>
      <stop offset="100%" stop-color="#10B981" stop-opacity="0"/>
    </linearGradient>

    <filter id="softGlow" x="-40%" y="-40%" width="180%" height="180%">
      <feGaussianBlur stdDeviation="3" result="b"/>
      <feMerge><feMergeNode in="b"/><feMergeNode in="SourceGraphic"/></feMerge>
    </filter>
    <filter id="softGlowStrong" x="-50%" y="-50%" width="200%" height="200%">
      <feGaussianBlur stdDeviation="4" result="b"/>
      <feMerge><feMergeNode in="b"/><feMergeNode in="b"/><feMergeNode in="SourceGraphic"/></feMerge>
    </filter>
    <filter id="bigBlur" x="-60%" y="-60%" width="220%" height="220%">
      <feGaussianBlur stdDeviation="45"/>
    </filter>
    <filter id="noise">
      <feTurbulence type="fractalNoise" baseFrequency="0.9" numOctaves="2" stitchTiles="stitch"/>
      <feColorMatrix type="saturate" values="0"/>
      <feComponentTransfer><feFuncA type="linear" slope="0.04"/></feComponentTransfer>
    </filter>

    <linearGradient id="vueGrad" x1="802" y1="269" x2="1058" y2="490" gradientUnits="userSpaceOnUse">
      <stop offset="0%" stop-color="#10B981"/>
      <stop offset="50%" stop-color="#22D3EE"/>
      <stop offset="100%" stop-color="#7C3AED"/>
    </linearGradient>

    <linearGradient id="nuxtGrad" x1="780" y1="278" x2="1080" y2="482" gradientUnits="userSpaceOnUse">
      <stop offset="0%" stop-color="#10B981"/>
      <stop offset="50%" stop-color="#22D3EE"/>
      <stop offset="100%" stop-color="#7C3AED"/>
    </linearGradient>

    <linearGradient id="astroGrad" x1="830" y1="280" x2="1030" y2="480" gradientUnits="userSpaceOnUse">
      <stop offset="0%" stop-color="#FF5D01"/>
      <stop offset="100%" stop-color="#7A0BC0"/>
    </linearGradient>

    <radialGradient id="glowAstro" cx="50%" cy="50%" r="50%">
      <stop offset="0%" stop-color="#FF5D01" stop-opacity="0.2"/>
      <stop offset="60%" stop-color="#7A0BC0" stop-opacity="0.08"/>
      <stop offset="100%" stop-color="#7A0BC0" stop-opacity="0"/>
    </radialGradient>

    <clipPath id="cardClip"><rect width="1180" height="610" rx="26"/></clipPath>
    <clipPath id="rightPanelClip"><rect x="720" y="116" width="420" height="454" rx="18"/></clipPath>
  </defs>

  <g clip-path="url(#cardClip)">
    <rect width="1180" height="610" fill="url(#bgGrad)"/>

    <g filter="url(#bigBlur)">
      <circle r="150" fill="url(#glowGreen)">
        <animate attributeName="cx" values="200;350;200" dur="14s" repeatCount="indefinite"/>
        <animate attributeName="cy" values="200;400;200" dur="14s" repeatCount="indefinite"/>
      </circle>
      <circle r="170" fill="url(#glowBlue)">
        <animate attributeName="cx" values="900;700;900" dur="18s" repeatCount="indefinite"/>
        <animate attributeName="cy" values="180;450;180" dur="18s" repeatCount="indefinite"/>
      </circle>
      <circle r="130" fill="url(#glowPurple)">
        <animate attributeName="cx" values="550;700;550" dur="16s" repeatCount="indefinite"/>
        <animate attributeName="cy" values="500;280;500" dur="16s" repeatCount="indefinite"/>
      </circle>
    </g>

    <rect width="1180" height="610" filter="url(#noise)" opacity="0.5"/>

    <g fill="#10B981">
      <circle cx="150" cy="90" r="1.5" opacity="0.5"><animate attributeName="cy" values="90;72;90" dur="6s" repeatCount="indefinite"/><animate attributeName="opacity" values="0.2;0.7;0.2" dur="6s" repeatCount="indefinite"/></circle>
      <circle cx="620" cy="520" r="1.3" opacity="0.4"><animate attributeName="cy" values="520;502;520" dur="7s" repeatCount="indefinite"/><animate attributeName="opacity" values="0.15;0.6;0.15" dur="7s" repeatCount="indefinite"/></circle>
    </g>
    <g fill="#22D3EE">
      <circle cx="1050" cy="180" r="1.6" opacity="0.4"><animate attributeName="cy" values="180;162;180" dur="8s" repeatCount="indefinite"/><animate attributeName="opacity" values="0.2;0.6;0.2" dur="8s" repeatCount="indefinite"/></circle>
      <circle cx="380" cy="560" r="1.2" opacity="0.35"><animate attributeName="cy" values="560;545;560" dur="5.5s" repeatCount="indefinite"/><animate attributeName="opacity" values="0.15;0.5;0.15" dur="5.5s" repeatCount="indefinite"/></circle>
    </g>
    <g fill="#7C3AED">
      <circle cx="850" cy="70" r="1.4" opacity="0.35"><animate attributeName="cy" values="70;55;70" dur="6.5s" repeatCount="indefinite"/><animate attributeName="opacity" values="0.15;0.5;0.15" dur="6.5s" repeatCount="indefinite"/></circle>
    </g>

    <rect width="1180" height="610" fill="url(#glassReflect)"/>

    <!-- LEFT PANEL: Terminal -->
    <g>
      <rect x="40" y="70" width="650" height="470" rx="18" fill="#1A3028" fill-opacity="0.75" stroke="rgba(255,255,255,0.12)"/>
      <rect x="40" y="70" width="650" height="46" rx="18" fill="#1A3028" fill-opacity="0.85"/>
      <text x="365" y="97" fill="#94A3B8" font-size="12" text-anchor="middle" letter-spacing="1" font-family="'SF Mono','JetBrains Mono','Fira Code',monospace">timur — powershell</text>
      <g fill="none" stroke="#94A3B8" stroke-width="1.2">
        <line x1="618" y1="93" x2="626" y2="93"/>
        <rect x="640" y="89" width="9" height="9" rx="1"/>
        <line x1="664" y1="87" x2="674" y2="97"/><line x1="674" y1="87" x2="664" y2="97"/>
      </g>

      <text x="74" y="158" fill="#F8FAFC" font-size="26" font-weight="700" font-family="'Inter','SF Pro Display',system-ui,sans-serif">Hi <tspan font-size="24">👋</tspan> I'm <tspan fill="#34D399">Timur</tspan></text>

      <g font-size="17" font-family="'Inter','SF Pro Display',system-ui,sans-serif">
        <text x="74" y="192" fill="#94A3B8">$ role:</text>
        <g>
          <text x="136" y="192" fill="#10B981"><tspan>Frontend Engineer</tspan><animate attributeName="opacity" values="1;1;0" keyTimes="0;0.9;1" dur="2.6s" begin="0s;15.6s" fill="freeze"/></text>
          <text x="136" y="192" fill="#22D3EE" opacity="0"><tspan>Web Developer</tspan><animate attributeName="opacity" values="0;1;1;0" keyTimes="0;0.04;0.9;1" dur="2.6s" begin="2.6s;18.2s" fill="freeze"/></text>
          <text x="136" y="192" fill="#7C3AED" opacity="0"><tspan>Creative Coder</tspan><animate attributeName="opacity" values="0;1;1;0" keyTimes="0;0.04;0.9;1" dur="2.6s" begin="5.2s;20.8s" fill="freeze"/></text>
          <text x="136" y="192" fill="#10B981" opacity="0"><tspan>UI Architect</tspan><animate attributeName="opacity" values="0;1;1;0" keyTimes="0;0.04;0.9;1" dur="2.6s" begin="7.8s;23.4s" fill="freeze"/></text>
          <text x="136" y="192" fill="#22D3EE" opacity="0"><tspan>Open Source Dev</tspan><animate attributeName="opacity" values="0;1;1;0" keyTimes="0;0.04;0.9;1" dur="2.6s" begin="10.4s;26s" fill="freeze"/></text>
          <text x="136" y="192" fill="#7C3AED" opacity="0"><tspan>Tech Explorer</tspan><animate attributeName="opacity" values="0;1;1;0" keyTimes="0;0.04;0.9;1" dur="2.6s" begin="13s;28.6s" fill="freeze"/></text>
        </g>
      </g>
      <rect x="136" y="180" width="8" height="15" fill="#10B981"><animate attributeName="opacity" values="1;0" dur="0.8s" repeatCount="indefinite"/></rect>

      <g font-size="14" fill="#94A3B8" font-family="'Inter','SF Pro Display',system-ui,sans-serif">
        <g opacity="0"><animate attributeName="opacity" values="0;1" dur="0.4s" begin="0.6s" fill="freeze"/><text x="74" y="226"><tspan fill="#22D3EE">📍 Location</tspan>   <tspan fill="#F8FAFC">San Francisco, CA</tspan></text></g>
        <g opacity="0"><animate attributeName="opacity" values="0;1" dur="0.4s" begin="0.9s" fill="freeze"/><text x="74" y="250"><tspan fill="#10B981">🎓 Education</tspan>  <tspan fill="#F8FAFC">Stanford University</tspan></text></g>
        <g opacity="0"><animate attributeName="opacity" values="0;1" dur="0.4s" begin="1.2s" fill="freeze"/><text x="74" y="274"><tspan fill="#7C3AED">⚡ Focus</tspan>      <tspan fill="#F8FAFC">Building AI-powered dev tools</tspan></text></g>
        <g opacity="0"><animate attributeName="opacity" values="0;1" dur="0.4s" begin="1.5s" fill="freeze"/><text x="74" y="298"><tspan fill="#22D3EE">🌐 Website</tspan>   <tspan fill="#F8FAFC">portfolio.dev</tspan></text></g>
        <g opacity="0"><animate attributeName="opacity" values="0;1" dur="0.4s" begin="1.8s" fill="freeze"/><text x="74" y="322"><tspan fill="#10B981">✉️ Email</tspan>     <tspan fill="#F8FAFC">hello@dev.io</tspan></text></g>
      </g>

      <g opacity="0"><animate attributeName="opacity" values="0;1" dur="0.5s" begin="2.2s" fill="freeze"/>
        <text x="74" y="354" fill="#CBD5E1" font-size="12" letter-spacing="2" font-family="'Inter','SF Pro Display',system-ui,sans-serif">SKILLS</text>
        <g font-size="12.5" fill="#F8FAFC" text-anchor="middle" font-family="'Inter','SF Pro Display',system-ui,sans-serif">
          <g><rect x="74" y="364" width="70" height="26" rx="13" fill="url(#pillGrad)" stroke="#10B981" stroke-opacity="0.4"><animate attributeName="stroke-opacity" values="0.4;0.8;0.4" dur="3s" repeatCount="indefinite"/></rect><text x="109" y="381">React</text></g>
          <g><rect x="152" y="364" width="80" height="26" rx="13" fill="url(#pillGrad)" stroke="#22D3EE" stroke-opacity="0.4"><animate attributeName="stroke-opacity" values="0.4;0.8;0.4" dur="2.8s" repeatCount="indefinite"/></rect><text x="192" y="381">Next.js</text></g>
          <g><rect x="240" y="364" width="80" height="26" rx="13" fill="url(#pillGrad)" stroke="#7C3AED" stroke-opacity="0.4"><animate attributeName="stroke-opacity" values="0.4;0.8;0.4" dur="3.2s" repeatCount="indefinite"/></rect><text x="280" y="381">Node.js</text></g>
          <g><rect x="328" y="364" width="100" height="26" rx="13" fill="url(#pillGrad)" stroke="#10B981" stroke-opacity="0.4"><animate attributeName="stroke-opacity" values="0.4;0.8;0.4" dur="2.6s" repeatCount="indefinite"/></rect><text x="378" y="381">TypeScript</text></g>
          <g><rect x="436" y="364" width="85" height="26" rx="13" fill="url(#pillGrad)" stroke="#22D3EE" stroke-opacity="0.4"><animate attributeName="stroke-opacity" values="0.4;0.8;0.4" dur="3.1s" repeatCount="indefinite"/></rect><text x="478" y="381">Tailwind</text></g>
          <g><rect x="74" y="398" width="80" height="26" rx="13" fill="url(#pillGrad)" stroke="#7C3AED" stroke-opacity="0.4"><animate attributeName="stroke-opacity" values="0.4;0.8;0.4" dur="2.9s" repeatCount="indefinite"/></rect><text x="114" y="415">Python</text></g>
          <g><rect x="162" y="398" width="80" height="26" rx="13" fill="url(#pillGrad)" stroke="#10B981" stroke-opacity="0.4"><animate attributeName="stroke-opacity" values="0.4;0.8;0.4" dur="3.3s" repeatCount="indefinite"/></rect><text x="202" y="415">Docker</text></g>
          <g><rect x="250" y="398" width="100" height="26" rx="13" fill="url(#pillGrad)" stroke="#22D3EE" stroke-opacity="0.4"><animate attributeName="stroke-opacity" values="0.4;0.8;0.4" dur="2.7s" repeatCount="indefinite"/></rect><text x="300" y="415">PostgreSQL</text></g>
          <g><rect x="358" y="398" width="55" height="26" rx="13" fill="url(#pillGrad)" stroke="#7C3AED" stroke-opacity="0.4"><animate attributeName="stroke-opacity" values="0.4;0.8;0.4" dur="3.4s" repeatCount="indefinite"/></rect><text x="385" y="415">AWS</text></g>
          <g><rect x="421" y="398" width="55" height="26" rx="13" fill="url(#pillGrad)" stroke="#10B981" stroke-opacity="0.4"><animate attributeName="stroke-opacity" values="0.4;0.8;0.4" dur="3s" repeatCount="indefinite"/></rect><text x="448" y="415">Git</text></g>
          <g><rect x="74" y="432" width="70" height="26" rx="13" fill="url(#pillGrad)" stroke="#22D3EE" stroke-opacity="0.4"><animate attributeName="stroke-opacity" values="0.4;0.8;0.4" dur="2.8s" repeatCount="indefinite"/></rect><text x="109" y="449">Figma</text></g>
        </g>
      </g>

      <g opacity="0"><animate attributeName="opacity" values="0;1" dur="0.5s" begin="2.8s" fill="freeze"/>
        <text x="74" y="476" fill="#CBD5E1" font-size="12" letter-spacing="2" font-family="'Inter','SF Pro Display',system-ui,sans-serif">CONNECT</text>
        <g stroke="#10B981" stroke-width="1.6" fill="none" filter="url(#softGlow)">
          <animate attributeName="stroke" values="#10B981;#22D3EE;#7C3AED;#10B981" dur="8s" repeatCount="indefinite"/>
          <circle cx="86" cy="502" r="15"/><path d="M80 509c0-3 0-4 1-5-3 0-6-2-6-6 0-1 0-2 1-3 0-1 0-2 0-3 0 0 1 0 3 1 2-1 4-1 6 0 2-1 3-1 3-1 0 1 0 2 0 3 1 1 1 2 1 3 0 4-3 6-6 6 1 1 1 2 1 4v2" stroke-width="1.3"/>
          <circle cx="126" cy="502" r="15"/><path d="M119 503l14-6-3 12-4-3-2 3-1-4z" stroke-width="1.3"/>
          <circle cx="166" cy="502" r="15"/><path d="M162 497v10M159 497v10M162 497h-5M162 507h-5M159 497c0 6 3 10 7 10s7-4 7-10" stroke-width="1.3"/>
          <circle cx="206" cy="502" r="15"/><rect x="197" y="496" width="18" height="12" rx="4" stroke-width="1.3"/><path d="M204 499l5 3-5 3z" fill="#10B981" stroke="none"/>
        </g>
      </g>
    </g>

    <!-- RIGHT PANEL: Card -->
    <g>
      <rect x="720" y="70" width="420" height="470" rx="18" fill="#1A3028" fill-opacity="0.8" stroke="rgba(255,255,255,0.12)"/>
      <rect x="720" y="70" width="420" height="46" rx="18" fill="#1A3028" fill-opacity="0.9"/>
      <text x="930" y="97" fill="#94A3B8" font-size="12" text-anchor="middle" letter-spacing="1" font-family="'SF Mono','JetBrains Mono','Fira Code',monospace">~/PortfolioCard.vue</text>
      <g fill="none" stroke="#94A3B8" stroke-width="1.2">
        <line x1="1068" y1="93" x2="1076" y2="93"/>
        <rect x="1090" y="89" width="9" height="9" rx="1"/>
        <line x1="1114" y1="87" x2="1124" y2="97"/><line x1="1124" y1="87" x2="1114" y2="97"/>
      </g>

      <text x="930" y="200" fill="#34D399" font-size="48" font-weight="800" text-anchor="middle" letter-spacing="4" filter="url(#softGlow)" font-family="'Inter','SF Pro Display',system-ui,sans-serif">TIMUR</text>
      <text x="930" y="235" fill="#94A3B8" font-size="16" text-anchor="middle" letter-spacing="1" font-family="'Inter','SF Pro Display',system-ui,sans-serif">Frontend Engineer</text>

      <!-- VUE LOGO -->
      <g clip-path="url(#rightPanelClip)">
        <g>
          <animate attributeName="opacity" values="0;1;1;0;0" keyTimes="0;0.0417;0.2917;0.3333;1" dur="12s" repeatCount="indefinite"/>
          <g transform="translate(802 269) scale(1)" filter="url(#softGlowStrong)">
            <path d="M204.8 0H256L128 220.8 0 0h97.92L128 51.2 157.44 0h47.36z" fill="url(#vueGrad)"/>
            <path d="M0 0l128 220.8L256 0h-51.2L128 132.48 50.56 0H0z" fill="url(#vueGrad)"/>
            <path d="M50.56 0L128 133.12 204.8 0h-47.36L128 51.2 97.92 0H50.56z" fill="#0E1A2A"/>
          </g>
        </g>

        <!-- NUXT LOGO -->
        <g opacity="0">
          <animate attributeName="opacity" values="0;1;1;0;0" keyTimes="0;0.0417;0.2917;0.3333;1" dur="12s" begin="4s" repeatCount="indefinite"/>
          <g transform="translate(780 278) scale(0.974)" filter="url(#softGlowStrong)">
            <path d="M172.791 209H287.287C290.924 209 294.497 208.035 297.646 206.2C300.795 204.366 303.41 201.727 305.228 198.55C307.046 195.372 308.002 191.768 308 188.099C307.998 184.43 307.039 180.827 305.219 177.651L228.326 43.2938C226.509 40.117 223.894 37.4789 220.746 35.6447C217.597 33.8105 214.025 32.8448 210.389 32.8448C206.753 32.8448 203.181 33.8105 200.033 35.6447C196.884 37.4789 194.269 40.117 192.452 43.2938L172.791 77.671L134.35 10.4475C132.531 7.27095 129.915 4.63321 126.766 2.79932C123.616 0.96544 120.044 0 116.407 0C112.771 0 109.198 0.96544 106.049 2.79932C102.899 4.63321 100.284 7.27095 98.4645 10.4475L2.78107 177.651C0.960764 180.827 0.00158427 184.43 1.96086e-06 188.099C-0.00158035 191.768 0.95449 195.372 2.77205 198.55C4.58961 201.727 7.20458 204.366 10.3539 206.2C13.5033 208.035 17.076 209 20.7126 209H92.584C121.06 209 142.06 196.382 156.511 171.764L191.593 110.472L210.384 77.671L266.778 176.199H191.593L172.791 209ZM91.4682 176.154H41.2553L116.441 44.791L153.955 110.472L128.838 154.372C119.242 170.345 108.34 176.165 91.4124 176.165" fill="url(#nuxtGrad)"/>
          </g>
        </g>

        <!-- ASTRO LOGO -->
        <g opacity="0">
          <animate attributeName="opacity" values="0;1;1;0;0" keyTimes="0;0.0417;0.2917;0.3333;1" dur="12s" begin="8s" repeatCount="indefinite"/>
          <circle cx="930" cy="380" r="135" fill="url(#glowAstro)"/>
          <g transform="translate(830 280) scale(8.33)" filter="url(#softGlow)">
            <path d="M8.358 20.162c-1.186-1.07-1.532-3.316-1.038-4.944.856 1.026 2.043 1.352 3.272 1.535 1.897.283 3.76.177 5.522-.678.202-.098.388-.229.608-.36.166.473.209.95.151 1.437-.14 1.185-.738 2.1-1.688 2.794-.38.277-.782.525-1.175.787-1.205.804-1.531 1.747-1.078 3.119l.044.148a3.158 3.158 0 0 1-1.407-1.188 3.31 3.31 0 0 1-.544-1.815c-.004-.32-.004-.642-.048-.958-.106-.769-.472-1.113-1.161-1.133-.707-.02-1.267.411-1.415 1.09-.012.053-.028.104-.045.165h.002zm-5.961-4.445s3.24-1.575 6.49-1.575l2.451-7.565c.092-.366.36-.614.662-.614.302 0 .57.248.662.614l2.45 7.565c3.85 0 6.491 1.575 6.491 1.575L16.088.727C15.93.285 15.663 0 15.303 0H8.697c-.36 0-.615.285-.784.727l-5.516 14.99z" fill="url(#astroGrad)"/>
          </g>
        </g>
      </g>
    </g>

    <rect x="1" y="1" width="1178" height="608" rx="26" fill="none" stroke="url(#accent)" stroke-width="1.5" stroke-opacity="0.4"/>
    <rect x="1" y="1" width="1178" height="608" rx="26" fill="none" stroke="url(#shimmer)" stroke-width="2" pathLength="1" stroke-dasharray="0.15 0.85">
      <animate attributeName="stroke-dashoffset" values="1;0" dur="5s" repeatCount="indefinite"/>
    </rect>
  </g>
</svg>
